# xmcd CD database file
# Copyright (C) 1996 Ti Kan
#
# Track frame offsets:
# 	183
# 	18160
# 	38965
# 	55933
# 	71085
# 	95828
# 	119198
# 	134143
# 	149993
# 	163493
# 	178433
# 	192825
# 	206208
# 	224518
# 	236343
# 	250018
# 	262195
# 	278270
#
# Disc length: 3883 seconds
#
# Revision: 1
# Processed by: cddbd v1.4b41PL1 Copyright (c) Steve Scherf et al.
# Submitted via: DiscPlay 3.4.1
#
DISCID=340f2912
DTITLE=Sarah Vaughan - Best Selection
DYEAR=1900
DGENRE=
TTITLE0=Smoke Gets in Your Eyes
TTITLE1=Doodlin
TTITLE2=Darn That Dream
TTITLE3=Moonlight in Vermont
TTITLE4=No Count Blues
TTITLE5=Cheek to Cheek
TTITLE6=Stardust
TTITLE7=Missing You
TTITLE8=My Funny Valentine
TTITLE9=Lover Man
TTITLE10=Tenderly
TTITLE11=Sometimes I'm Happy
TTITLE12=Lush Life
TTITLE13=How High the Moon
TTITLE14=Misty
TTITLE15=Take the 'A' Train
TTITLE16=Poor Butterfly
TTITLE17=Summertime
EXTD=
EXTT0=
EXTT1=
EXTT2=
EXTT3=
EXTT4=
EXTT5=
EXTT6=
EXTT7=
EXTT8=
EXTT9=
EXTT10=
EXTT11=
EXTT12=
EXTT13=
EXTT14=
EXTT15=
EXTT16=
EXTT17=
PLAYORDER=
